Coordinates
version=1
nRows=4
nColumns=63
inDegrees=yes

Units are S.I. units (second, meters, Newtons, ...)
If the header above contains a line with 'inDegrees', this indicates whether rotational values are in degrees (yes) or radians (no).

endheader
time	pelvis_tilt	pelvis_list	pelvis_rotation	pelvis_tx	pelvis_ty	pelvis_tz	hip_flexion_r	hip_adduction_r	hip_rotation_r	knee_angle_r	knee_angle_r_beta	ankle_angle_r	subtalar_angle_r	mtp_angle_r	hip_flexion_l	hip_adduction_l	hip_rotation_l	knee_angle_l	knee_angle_l_beta	ankle_angle_l	subtalar_angle_l	mtp_angle_l	L5_S1_Flex_Ext	L5_S1_Lat_Bending	L5_S1_axial_rotation	L4_L5_Flex_Ext	L4_L5_Lat_Bending	L4_L5_axial_rotation	L3_L4_Flex_Ext	L3_L4_Lat_Bending	L3_L4_axial_rotation	L2_L3_Flex_Ext	L2_L3_Lat_Bending	L2_L3_axial_rotation	L1_L2_Flex_Ext	L1_L2_Lat_Bending	L1_L2_axial_rotation	L1_T12_Flex_Ext	L1_T12_Lat_Bending	L1_T12_axial_rotation	Abs_r3	Abs_r2	Abs_r1	Abs_t1	Abs_t2	neck_flexion	neck_bending	neck_rotation	arm_flex_r	arm_add_r	arm_rot_r	elbow_flex_r	pro_sup_r	wrist_flex_r	wrist_dev_r	arm_flex_l	arm_add_l	arm_rot_l	elbow_flex_l	pro_sup_l	wrist_flex_l	wrist_dev_l
      3.75000000	    -62.94775915	     -4.20411651	      2.22867632	     -0.30135655	      1.13690263	      0.04004078	     97.41888367	     -8.01002241	     -8.36171124	     76.35888172	      1.33271390	      1.75780560	     -5.38563538	      0.00000000	    114.45393377	      0.85598144	      3.35894468	     68.15074473	      1.18945488	     15.64326669	     -0.08751982	      0.00000000	     -0.10131822	      1.04046601	      0.19724077	     -0.18815807	      1.38381979	      0.20956832	     -0.16645571	      2.52978905	      0.20956832	     -0.11579660	      2.52978905	      0.17258568	     -0.09408410	      2.12171829	      0.16025813	     -0.05789323	      1.61168185	      0.14793058	     -0.72370592	     11.76995959	      1.09699400	      0.00000000	      0.00000000	      0.00000000	      0.00000000	      0.00000000	     62.35462360	    -12.78503208	      0.63896991	     52.07223331	     62.40614043	      0.00000000	      4.99996949	     63.22465515	     -1.65038709	     -3.51309854	     44.17718061	     62.19335378	      0.00000000	      4.99996949
      3.75800000	    -62.80188682	     -4.47820205	      1.15293771	     -0.30064412	      1.13583942	      0.04086989	     98.59974052	     -7.11816448	     -8.18585688	     79.54099378	      1.38825223	      2.71369739	     -5.52700379	      0.00000000	    112.87081666	     -0.21264653	      3.87599581	     65.42096446	      1.14181123	     14.57929741	      0.41855247	      0.00000000	     -0.10102631	      1.08758051	      0.38004565	     -0.18761596	      1.44648207	      0.40379851	     -0.16597613	      2.64434324	      0.40379851	     -0.11546297	      2.64434324	      0.33253995	     -0.09381303	      2.21779417	      0.30878709	     -0.05772643	      1.68466220	      0.28503424	     -0.72162084	     12.30292820	      2.11369991	      0.00000000	      0.00000000	      0.00000000	      0.00000000	      0.00000000	     62.36498931	    -12.75107191	      0.71433989	     51.88602104	     62.42713392	      0.00000000	      4.99996966	     62.97299777	     -1.49756094	     -3.68325865	     44.09984075	     62.18994595	      0.00000000	      4.99996966
      3.76700000	    -62.60326809	     -3.90377371	      0.63367485	     -0.29994188	      1.13463521	      0.04181633	    100.03658487	     -6.67064677	     -7.01221398	     82.93950601	      1.44756746	      4.23334148	     -5.02570021	      0.00000000	    110.98776683	     -1.19059816	      3.26404990	     62.48890476	      1.09063713	     13.83081664	      1.82119942	      0.00000000	     -0.10213700	      1.01199980	      0.44524413	     -0.18967863	      1.34595973	      0.47307189	     -0.16780088	      2.46057631	      0.47307189	     -0.11673238	      2.46057631	      0.38958861	     -0.09484442	      2.06366999	      0.36176085	     -0.05836108	      1.56758769	      0.33393310	     -0.72955441	     11.44794413	      2.47631427	      0.00000000	      0.00000000	      0.00000000	      0.00000000	      0.00000000	     62.11596623	    -12.56494321	      1.00857141	     51.68207703	     62.40888984	      0.00000000	      4.99997058	     63.02429502	     -1.34558058	     -4.43528857	     43.46904345	     62.08180377	      0.00000000	      4.99997058
      3.77500000	    -62.41350571	     -3.57257443	     -0.15126443	     -0.29906699	      1.13326544	      0.04300207	    101.42220849	     -5.96965452	     -6.16635879	     86.15098746	      1.50361838	      5.68969637	     -4.37909172	      0.00000000	    109.22584454	     -2.35589911	      2.81633785	     59.88896773	      1.04525967	     12.87368086	      2.97802317	      0.00000000	     -0.10040890	      0.96966194	      0.56648918	     -0.18646937	      1.28965038	      0.60189475	     -0.16496179	      2.35763603	      0.60189475	     -0.11475733	      2.35763603	      0.49567803	     -0.09323971	      1.97733462	      0.46027246	     -0.05737365	      1.50200634	      0.42486688	     -0.71721075	     10.96900976	      3.15064287	      0.00000000	      0.00000000	      0.00000000	      0.00000000	      0.00000000	     61.86194590	    -12.33253887	      0.87085597	     51.50765279	     62.35347090	      0.00000000	      4.99997152	     62.91175602	     -1.29470547	     -4.76153372	     43.19734767	     62.02737935	      0.00000000	      4.99997152
